<?xml version="1.0" encoding="iso-8859-1"?>
<!-- Generator: Adobe Illustrator 19.0.0, SVG Export Plug-In . SVG Version: 6.00 Build 0)  -->
<svg version="1.1" id="Capa_1" xmlns="http://www.w3.org/2000/svg" xmlns:xlink="http://www.w3.org/1999/xlink" x="0px" y="0px"
	 viewBox="0 0 512 512" style="enable-background:new 0 0 512 512;" xml:space="preserve">
<g>
	<g>
		<path d="M84.597,232.386c-8.965,16.032-15.32,32.353-18.886,48.511l14.662,3.235c3.248-14.723,9.079-29.668,17.329-44.417
			L84.597,232.386z"/>
	</g>
</g>
<g>
	<g>
		<path d="M101.529,206.518c-3.119,4.144-6.101,8.379-8.862,12.585l12.553,8.237c2.585-3.939,5.378-7.906,8.304-11.794
			L101.529,206.518z"/>
	</g>
</g>
<g>
	<g>
		<path d="M63.131,296.5c-0.545,4.95-0.82,9.931-0.82,14.805v1h15.015v-1c0-4.328,0.245-8.759,0.73-13.166L63.131,296.5z"/>
	</g>
</g>
<g>
	<g>
		<path d="M155.706,437.352l-7.94,12.744c4.379,2.729,8.917,5.333,13.489,7.742l6.999-13.284
			C164.001,442.313,159.779,439.891,155.706,437.352z"/>
	</g>
</g>
<g>
	<g>
		<path d="M208.533,460.463l-3.943,14.488c17.111,4.658,34.408,7.02,51.41,7.02v-15.015
			C240.329,466.956,224.359,464.771,208.533,460.463z"/>
	</g>
</g>
<g>
	<g>
		<path d="M181.289,450.833l-6.025,13.753c4.739,2.076,9.607,4.001,14.467,5.72l5.007-14.156
			C190.22,454.553,185.695,452.764,181.289,450.833z"/>
	</g>
</g>
<g>
	<g>
		<path d="M132.024,420.048l-9.74,11.426c4.037,3.441,8.271,6.781,12.585,9.925l8.843-12.135
			C139.704,426.344,135.773,423.243,132.024,420.048z"/>
	</g>
</g>
<g>
	<g>
		<path d="M415.048,379.552c-8.95,14.665-20.75,28.29-35.073,40.496l9.74,11.427c15.534-13.239,28.37-28.075,38.149-44.1
			L415.048,379.552z"/>
	</g>
</g>
<g>
	<g>
		<path d="M434.675,312.304c0,18.665-4.307,37.078-12.802,54.725l13.529,6.512c9.48-19.696,14.287-40.299,14.287-61.238H434.675z"/>
	</g>
</g>
<g>
	<g>
		<path d="M401.13,195.72l-11.447,9.717c2.933,3.454,5.782,7.006,8.468,10.557l11.975-9.058
			C407.27,203.162,404.244,199.389,401.13,195.72z"/>
	</g>
</g>
<g>
	<g>
		<path d="M317.095,128.881l-6.882,13.345c16.995,8.763,33.289,19.662,48.432,32.397l9.663-11.492
			C352.311,149.678,335.08,138.154,317.095,128.881z"/>
	</g>
</g>
<g>
	<g>
		<path d="M379.837,173.373l-10.275,10.949c3.552,3.333,7.039,6.792,10.365,10.279l10.866-10.361
			C387.276,180.551,383.592,176.896,379.837,173.373z"/>
	</g>
</g>
<g>
	<g>
		<rect x="299.813" y="30.029" width="15.015" height="15.015"/>
	</g>
</g>
<g>
	<g>
		<rect x="194.71" y="30.029" width="60.059" height="15.015"/>
	</g>
</g>
<g>
	<g>
		<rect x="269.783" y="30.029" width="15.015" height="15.015"/>
	</g>
</g>
<g>
	<g>
		<path d="M178.002,225.254l3.602,14.577c4.02-0.993,8.278-1.317,12.446-0.951l1.314-14.957
			C189.555,223.413,183.621,223.866,178.002,225.254z"/>
	</g>
</g>
<g>
	<g>
		<path d="M212.247,228.318l-6.162,13.692c3.792,1.707,7.271,4.04,10.339,6.936l10.305-10.919
			C222.442,233.98,217.569,230.713,212.247,228.318z"/>
	</g>
</g>
<g>
	<g>
		<path d="M164.195,249.676c1.842-1.835,3.866-3.479,6.018-4.886l-8.221-12.565c-3.004,1.967-5.828,4.258-8.393,6.814
			c-9.929,9.891-15.418,23.05-15.464,37.061l-0.001,0.173c0,13.996,5.441,27.166,15.321,37.084l10.637-10.596
			c-7.04-7.069-10.926-16.449-10.944-26.428l0.001-0.136C153.17,266.171,157.091,256.752,164.195,249.676z"/>
	</g>
</g>
<g>
	<g>
		
			<rect x="252.926" y="391.677" transform="matrix(0.7057 -0.7085 0.7085 0.7057 -206.1803 301.9974)" width="15.015" height="15.015"/>
	</g>
</g>
<g>
	<g>
		
			<rect x="265.139" y="348.778" transform="matrix(0.7057 -0.7085 0.7085 0.7057 -163.2069 319.6541)" width="76.074" height="15.015"/>
	</g>
</g>
<g>
	<g>
		
			<rect x="338.394" y="305.876" transform="matrix(0.7057 -0.7085 0.7085 0.7057 -120.2368 337.2998)" width="15.015" height="15.015"/>
	</g>
</g>
<g>
	<g>
		<path d="M319.313,223.718c-14.077,0-27.3,5.491-37.231,15.464l10.637,10.595c7.095-7.122,16.538-11.045,26.594-11.045
			c9.999,0,19.406,3.886,26.489,10.942l10.596-10.636C346.482,229.159,333.313,223.718,319.313,223.718z"/>
	</g>
</g>
<g>
	<g>
		<path d="M434.075,188.821c-26.715-35.318-63.373-66.086-103.219-86.631l-1.284-0.663V81.535l40.91-55.786
			c2.05-2.795,3.133-6.104,3.133-9.569c0-8.921-7.258-16.179-16.18-16.179H152.563c-8.922,0-16.18,7.258-16.18,16.18
			c0,3.465,1.083,6.775,3.133,9.568l40.91,55.787v20.027l-0.621,0.325c-39.509,20.695-75.829,51.441-102.271,86.574
			c-29.605,39.335-45.253,81.814-45.253,122.843v1c0,52.828,25.045,103.267,70.525,142.026C145.81,490.979,201.647,512,256,512
			s110.19-21.021,153.194-57.67c45.479-38.76,70.525-89.198,70.525-142.027C479.718,270.997,463.935,228.298,434.075,188.821z
			 M151.624,16.867c-0.146-0.198-0.226-0.442-0.226-0.689c0-0.643,0.523-1.165,1.165-1.165h204.872c0.643,0,1.165,0.523,1.165,1.165
			c0,0.245-0.08,0.49-0.226,0.689L318.261,71.57H191.738L151.624,16.867z M314.557,86.585v12.012H195.441V86.585H314.557z
			 M256,496.985c-98.518,0-208.704-78.98-208.704-184.681v-1c0-84.55,72.3-160.929,139.477-196.118l3.008-1.576h45.063
			l-20.593,41.186l13.429,6.715l23.95-47.901h9.74l23.95,47.901l13.429-6.715l-20.593-41.186h42.086l3.732,1.924
			c67.78,34.949,140.729,111.432,140.729,196.769C464.704,418.005,354.518,496.985,256,496.985z"/>
	</g>
</g>
<g>
	<g>
		<path d="M377.592,217.764c-15.588-15.529-36.276-24.075-58.275-24.075c-0.054,0-0.111,0-0.165,0
			c-22.059,0.042-42.779,8.672-58.346,24.3l-5.807,5.829l-5.807-5.829c-15.567-15.627-36.288-24.258-58.347-24.301
			c-0.055,0-0.109,0-0.164,0c-21.997,0-42.688,8.546-58.275,24.074c-15.627,15.567-24.258,36.287-24.301,58.346
			c-0.043,22.059,8.507,42.813,24.074,58.44l122.819,123.298L377.818,334.55c15.567-15.627,24.117-36.383,24.074-58.44
			C401.849,254.052,393.219,233.331,377.592,217.764z M367.181,323.953L254.999,436.571L142.817,323.953
			c-12.737-12.786-19.732-29.767-19.697-47.815c0.035-18.048,7.096-35.001,19.882-47.738c12.754-12.705,29.68-19.697,47.68-19.697
			c0.044,0,0.09,0,0.134,0c18.048,0.035,35.002,7.096,47.739,19.882l16.444,16.508l16.444-16.508
			c12.736-12.786,29.69-19.847,47.738-19.882c0.045,0,0.09,0,0.135,0c17.997,0,34.926,6.992,47.68,19.697
			c12.786,12.737,19.847,29.691,19.882,47.738C386.913,294.185,379.918,311.167,367.181,323.953z"/>
	</g>
</g>
<g>
</g>
<g>
</g>
<g>
</g>
<g>
</g>
<g>
</g>
<g>
</g>
<g>
</g>
<g>
</g>
<g>
</g>
<g>
</g>
<g>
</g>
<g>
</g>
<g>
</g>
<g>
</g>
<g>
</g>
</svg>
